<svg width="22" height="22" viewBox="0 0 22 22" fill="none" xmlns="http://www.w3.org/2000/svg" id="dislike">
<path d="M15.6826 12.0001L11.6826 21.0001C10.887 21.0001 10.1239 20.6841 9.5613 20.1214C8.99869 19.5588 8.68262 18.7958 8.68262 18.0001L8.68262 14.0001L3.02262 14.0001C2.73271 14.0034 2.44555 13.9436 2.18105 13.8249C1.91654 13.7062 1.681 13.5314 1.49076 13.3126C1.30052 13.0938 1.16011 12.8363 1.07928 12.5579C0.998443 12.2794 0.979111 11.9868 1.02262 11.7001L2.40262 2.70012C2.47494 2.22322 2.71718 1.78851 3.08471 1.47611C3.45224 1.16372 3.92029 0.994668 4.40262 1.00012L15.6826 1.00012M15.6826 12.0001L15.6826 1.00012M15.6826 12.0001L18.6826 12.0001C19.2131 12.0001 19.7218 11.7894 20.0968 11.4143C20.4719 11.0393 20.6826 10.5306 20.6826 10.0001L20.6826 3.00012C20.6826 2.46969 20.4719 1.96098 20.0968 1.58591C19.7218 1.21084 19.2131 1.00012 18.6826 1.00012L15.6826 1.00012" stroke="#333333" stroke-width="2" stroke-linecap="round" stroke-linejoin="round"/>
</svg>
